<svg width="24" height="20" viewBox="0 0 24 20" fill="none" xmlns="http://www.w3.org/2000/svg">
<path d="M21.533 5.11226C21.548 5.32526 21.548 5.53825 21.548 5.75225C21.5605 7.59354 21.207 9.41897 20.5081 11.1225C19.8092 12.826 18.7788 14.3737 17.4768 15.6757C16.1747 16.9777 14.6269 18.008 12.9233 18.7068C11.2197 19.4055 9.39429 19.7589 7.553 19.7463C4.87521 19.7532 2.25242 18.9864 0 17.5383C0.394472 17.5817 0.791149 17.6021 1.188 17.5993C3.4018 17.6054 5.55313 16.8656 7.295 15.4993C6.26844 15.4809 5.27327 15.1422 4.44854 14.5307C3.62382 13.9191 3.01075 13.0652 2.695 12.0883C3.00232 12.1369 3.31287 12.1623 3.624 12.1643C4.06063 12.1631 4.49539 12.107 4.918 11.9973C3.80391 11.7717 2.80232 11.1673 2.08349 10.2868C1.36466 9.40625 0.972967 8.30394 0.975 7.16725V7.10626C1.65651 7.48644 2.41819 7.70025 3.198 7.73026C2.1541 7.03403 1.41524 5.96567 1.13221 4.74324C0.849182 3.5208 1.04332 2.23643 1.675 1.15226C2.91048 2.67294 4.45179 3.91696 6.19898 4.80364C7.94617 5.69033 9.86022 6.19988 11.817 6.29925C11.7397 5.92889 11.7005 5.55159 11.7 5.17326C11.7007 4.18655 11.9979 3.22284 12.5531 2.40712C13.1082 1.5914 13.8957 0.961314 14.8133 0.5986C15.7309 0.235887 16.7363 0.15728 17.6992 0.372977C18.662 0.588675 19.5378 1.08872 20.213 1.80826C21.313 1.59522 22.3676 1.19292 23.33 0.619256C22.9634 1.75597 22.1946 2.71989 21.168 3.33026C22.1444 3.22043 23.099 2.96528 24 2.57326C23.3265 3.55364 22.4925 4.41337 21.533 5.11626V5.11226Z" fill="#000000"/>
</svg>
